<svg width="48" height="48" viewBox="0 0 48 48" fill="none" xmlns="http://www.w3.org/2000/svg">
<rect x="0.5" y="0.5" width="47" height="47" rx="5.5" fill="white"/>
<rect x="0.5" y="0.5" width="47" height="47" rx="5.5" stroke="#E5E7EB"/>
<path d="M21.6989 29.6364V29.483C21.7159 27.8551 21.8864 26.5597 22.2102 25.5966C22.5341 24.6335 22.9943 23.8537 23.5909 23.2571C24.1875 22.6605 24.9034 22.1108 25.7386 21.608C26.2415 21.3011 26.6932 20.9389 27.0938 20.5213C27.4943 20.0952 27.8097 19.6051 28.0398 19.0511C28.2784 18.4972 28.3977 17.8835 28.3977 17.2102C28.3977 16.375 28.2017 15.6506 27.8097 15.0369C27.4176 14.4233 26.8935 13.9503 26.2372 13.6179C25.581 13.2855 24.8523 13.1193 24.0511 13.1193C23.3523 13.1193 22.679 13.2642 22.0312 13.554C21.3835 13.8437 20.8423 14.2997 20.4077 14.9219C19.973 15.544 19.7216 16.358 19.6534 17.3636H16.4318C16.5 15.9148 16.875 14.6747 17.5568 13.6435C18.2472 12.6122 19.1548 11.8239 20.2798 11.2784C21.4134 10.733 22.6705 10.4602 24.0511 10.4602C25.5511 10.4602 26.8551 10.7585 27.9631 11.3551C29.0795 11.9517 29.9403 12.7699 30.5455 13.8097C31.1591 14.8494 31.4659 16.0341 31.4659 17.3636C31.4659 18.3011 31.321 19.1491 31.0312 19.9077C30.75 20.6662 30.3409 21.3437 29.804 21.9403C29.2756 22.5369 28.6364 23.0653 27.8864 23.5256C27.1364 23.9943 26.5355 24.4886 26.0838 25.0085C25.6321 25.5199 25.304 26.1293 25.0994 26.8366C24.8949 27.544 24.7841 28.4261 24.767 29.483V29.6364H21.6989ZM23.3352 37.2045C22.7045 37.2045 22.1634 36.9787 21.7116 36.527C21.2599 36.0753 21.0341 35.5341 21.0341 34.9034C21.0341 34.2727 21.2599 33.7315 21.7116 33.2798C22.1634 32.8281 22.7045 32.6023 23.3352 32.6023C23.9659 32.6023 24.5071 32.8281 24.9588 33.2798C25.4105 33.7315 25.6364 34.2727 25.6364 34.9034C25.6364 35.321 25.5298 35.7045 25.3168 36.054C25.1122 36.4034 24.8352 36.6847 24.4858 36.8977C24.1449 37.1023 23.7614 37.2045 23.3352 37.2045Z" fill="#9CA3AF"/>
</svg>
