<?xml version="1.0" encoding="UTF-8" standalone="no"?><!DOCTYPE svg PUBLIC "-//W3C//DTD SVG 1.1//EN" "http://www.w3.org/Graphics/SVG/1.1/DTD/svg11.dtd"><svg width="100%" height="100%" viewBox="0 0 652 652" version="1.1" xmlns="http://www.w3.org/2000/svg" xmlns:xlink="http://www.w3.org/1999/xlink" xml:space="preserve" xmlns:serif="http://www.serif.com/" style="fill-rule:evenodd;clip-rule:evenodd;stroke-linejoin:round;stroke-miterlimit:2;"><g id="Layer_2"><g id="art"><path d="M94.599,325.283c-0,-47.53 -35.443,-87.685 -82.768,-93.421c-15.775,61.256 -15.775,125.586 0,186.842c47.325,-5.737 82.768,-45.686 82.768,-93.421Z" style="fill:#e7252a;fill-rule:nonzero;"/><path d="M149.299,295.782c-16.389,-0 -29.706,13.111 -29.706,29.501c0,16.39 13.112,29.706 29.501,29.706c16.39,0 29.707,-13.112 29.707,-29.501l-0,-0.205c0.204,-16.185 -13.112,-29.501 -29.502,-29.501Z" style="fill:#e7252a;fill-rule:nonzero;"/><path d="M557.401,325.283c0,47.53 35.443,87.684 82.768,93.421c15.775,-61.256 15.775,-125.586 -0,-186.842c-47.325,5.941 -82.768,45.891 -82.768,93.421Z" style="fill:#e7252a;fill-rule:nonzero;"/><path d="M502.496,295.782c-16.39,-0.205 -29.706,12.906 -29.911,29.296c-0.205,16.39 12.907,29.706 29.296,29.911c16.39,0.205 29.706,-12.907 29.911,-29.296l0,-0.41c0,-16.185 -13.111,-29.297 -29.296,-29.501Z" style="fill:#e7252a;fill-rule:nonzero;"/><path d="M325.283,557.401c-47.53,0 -87.685,35.443 -93.421,82.768c61.256,15.775 125.586,15.775 186.842,-0c-5.737,-47.325 -45.891,-82.768 -93.421,-82.768Z" style="fill:#e7252a;fill-rule:nonzero;"/><path d="M325.283,473.199c-16.39,0 -29.706,13.112 -29.706,29.502c-0,16.389 13.111,29.706 29.501,29.706c16.39,-0 29.706,-13.112 29.706,-29.501l0,-0.205c0,-16.185 -13.111,-29.502 -29.501,-29.502Z" style="fill:#e7252a;fill-rule:nonzero;"/><path d="M325.283,94.599c47.53,-0 87.684,-35.443 93.421,-82.768c-61.256,-15.775 -125.586,-15.775 -186.842,0c5.736,47.325 45.891,82.768 93.421,82.768Z" style="fill:#e7252a;fill-rule:nonzero;"/><path d="M325.283,119.798c-16.39,-0 -29.501,13.317 -29.501,29.501c-0,16.39 13.316,29.502 29.501,29.502c16.185,-0 29.501,-13.317 29.501,-29.502c0,-16.184 -13.111,-29.501 -29.501,-29.501Z" style="fill:#e7252a;fill-rule:nonzero;"/><path d="M489.179,489.179c-33.598,33.599 -36.876,86.865 -7.58,124.357c54.496,-32.165 99.977,-77.646 132.141,-132.142c-37.491,-28.887 -90.962,-25.609 -124.561,7.785Z" style="fill:#e7252a;fill-rule:nonzero;"/><path d="M429.562,429.562c-11.473,11.473 -11.473,30.321 -0,41.794c11.473,11.472 30.321,11.472 41.794,-0c11.472,-11.473 11.472,-30.321 -0,-41.794c-11.473,-11.473 -30.321,-11.473 -41.794,-0Z" style="fill:#e7252a;fill-rule:nonzero;"/><path d="M162.001,162.001c33.599,-33.598 36.877,-86.865 7.785,-124.356c-54.495,32.165 -99.976,77.646 -132.141,132.141c37.286,29.092 90.758,25.814 124.356,-7.785Z" style="fill:#e7252a;fill-rule:nonzero;"/><path d="M179.825,179.825c-11.473,11.473 -11.473,30.321 -0,41.794c11.473,11.472 30.321,11.472 41.794,-0c11.472,-11.473 11.472,-30.321 -0,-41.794c-11.473,-11.473 -30.321,-11.473 -41.794,-0Z" style="fill:#e7252a;fill-rule:nonzero;"/><path d="M488.974,161.592c33.599,33.598 87.07,36.876 124.357,7.785c-32.165,-54.496 -77.646,-99.977 -132.142,-132.142c-29.091,37.491 -25.813,90.758 7.785,124.357Z" style="fill:#e7252a;fill-rule:nonzero;"/><path d="M471.151,221.414c11.472,-11.473 11.677,-30.321 -0,-41.794c-11.473,-11.473 -30.321,-11.678 -41.794,0c-11.473,11.473 -11.678,30.321 0,41.794c11.473,11.472 30.321,11.472 41.794,-0Z" style="fill:#e7252a;fill-rule:nonzero;"/><path d="M161.796,488.974c-33.598,-33.598 -86.865,-36.876 -124.356,-7.785c32.165,54.496 77.441,99.977 131.937,132.142c29.091,-37.492 26.018,-90.758 -7.581,-124.357Z" style="fill:#e7252a;fill-rule:nonzero;"/><path d="M179.62,429.152c-11.473,11.473 -11.473,30.321 0,41.794c11.473,11.473 30.321,11.473 41.794,-0c11.472,-11.473 11.472,-30.321 -0,-41.794c-11.473,-11.473 -30.116,-11.473 -41.794,0Z" style="fill:#e7252a;fill-rule:nonzero;"/></g></g></svg>