<?xml version="1.0" encoding="UTF-8" standalone="no"?><!DOCTYPE svg PUBLIC "-//W3C//DTD SVG 1.1//EN" "http://www.w3.org/Graphics/SVG/1.1/DTD/svg11.dtd"><svg width="100%" height="100%" viewBox="0 0 400 400" version="1.1" xmlns="http://www.w3.org/2000/svg" xmlns:xlink="http://www.w3.org/1999/xlink" xml:space="preserve" xmlns:serif="http://www.serif.com/" style="fill-rule:evenodd;clip-rule:evenodd;stroke-linejoin:round;stroke-miterlimit:2;"><g><ellipse cx="200" cy="200" rx="188" ry="186" style="fill:#fff;"/><path d="M161.815,3.372c-8.389,1.678 -17.94,4.001 -21.295,5.162c-36.267,12.907 -59.498,27.233 -82.859,50.981c-76.405,77.696 -76.922,200.564 -1.291,279.293c32.137,33.427 72.663,53.69 119.642,59.627c33.299,4.13 65.048,0.129 97.83,-12.519c40.655,-15.617 78.342,-48.27 99.766,-85.956c13.036,-23.103 21.812,-48.657 24.651,-71.372c1.807,-13.681 1.807,-45.431 0.129,-57.434c-6.84,-48.398 -33.04,-94.99 -70.21,-125.062c-28.394,-22.973 -54.465,-35.363 -89.828,-42.591c-22.07,-4.646 -53.691,-4.646 -76.535,-0.129Zm114.221,106.09l0.388,28.136l22.328,0.387l22.327,0.258l-0.387,8.777l-0.387,8.647l-43.881,1.29l-0,118.739l3.871,7.744c5.163,10.066 9.035,12.906 18.457,12.906c8.389,-0 17.552,-4.13 27.103,-11.874c4.646,-3.872 6.066,-4.388 8.389,-3.356c1.549,0.775 3.743,2.969 4.775,4.905c1.936,3.485 1.807,3.614 -5.42,10.196c-21.038,18.972 -45.689,26.071 -64.403,18.456c-13.552,-5.679 -19.489,-12.132 -26.071,-28.265c-2.581,-6.582 -2.71,-9.034 -3.226,-68.533l-0.388,-61.563l-11.357,0c-10.583,0 -11.487,0.258 -14.584,3.485c-1.807,2.065 -4.776,6.453 -6.583,10.067c-3.742,7.356 -11.228,24.522 -11.228,25.683c-0,0.517 -1.162,3.227 -2.452,6.324c-1.42,2.969 -5.292,12.132 -8.648,20.263c-6.84,16.908 -12.39,30.201 -16.003,38.719c-5.421,12.778 -21.683,52.4 -22.457,54.465c-0.517,1.807 -2.065,2.323 -6.454,2.323c-5.807,0 -5.807,0 -9.163,-7.098c-1.807,-4.001 -3.227,-7.486 -3.227,-7.744c0,-0.258 -1.936,-4.775 -4.388,-9.938c-5.55,-12.003 -39.493,-87.247 -40.784,-90.731c-1.678,-4.389 -10.325,-22.845 -14.326,-30.847c-7.744,-15.1 -12.39,-19.23 -25.038,-22.069c-6.195,-1.42 -6.453,-1.678 -6.453,-5.937l-0,-4.388l91.635,-0l-0,9.034l-7.357,0.903c-18.972,2.324 -19.101,6.97 -1.42,46.85c5.292,12.003 10.713,24.264 12.003,27.104c8.647,19.746 15.875,35.492 16.391,35.492c0.258,0 1.936,-3.355 3.743,-7.486c1.807,-4 3.872,-8.518 4.517,-9.937c0.646,-1.42 5.034,-11.874 9.68,-23.232c4.646,-11.357 11.229,-27.103 14.455,-34.847c7.099,-17.165 8.389,-26.071 4.13,-29.943c-2.71,-2.71 -7.873,-4.259 -13.681,-4.259c-2.71,0 -3.097,-0.645 -3.097,-5.162l-0,-5.163l30.33,0c29.814,0 30.459,0 35.234,-3.097c6.97,-4.388 13.036,-11.745 17.166,-20.78c4.259,-9.421 7.614,-21.94 7.614,-28.264l0,-4.647l18.069,0l0.258,28.007Z" style="fill-rule:nonzero;"/></g></svg>