<?xml version="1.0" encoding="UTF-8" standalone="no"?><!DOCTYPE svg PUBLIC "-//W3C//DTD SVG 1.1//EN" "http://www.w3.org/Graphics/SVG/1.1/DTD/svg11.dtd"><svg width="100%" height="100%" viewBox="0 0 512 512" version="1.1" xmlns="http://www.w3.org/2000/svg" xmlns:xlink="http://www.w3.org/1999/xlink" xml:space="preserve" xmlns:serif="http://www.serif.com/" style="fill-rule:evenodd;clip-rule:evenodd;stroke-linejoin:round;stroke-miterlimit:2;"><g><path d="M71.312,460.974l-41.07,-460.974l451.516,0l-41.07,460.725l-185.061,51.275" style="fill:#e44d26;fill-rule:nonzero;"/><path d="M256,472.797l0,-434.963l184.564,-0l-35.22,393.271" style="fill:#f16529;fill-rule:nonzero;"/><path d="M114.123,94.211l141.877,-0l0,56.502l-79.899,-0l5.227,57.87l74.672,0l0,56.378l-126.444,-0m2.489,28.375l56.75,-0l3.983,45.176l63.222,16.926l0,58.991l-115.99,-32.358" style="fill:#ebebeb;fill-rule:nonzero;"/><path d="M397.379,94.211l-141.628,-0l0,56.502l136.401,-0m-5.103,57.87l-131.298,0l0,56.502l69.694,0l-6.596,73.427l-63.098,16.926l0,58.742l115.741,-32.109" style="fill:#fff;fill-rule:nonzero;"/></g></svg>